PathFileType	4	(X/Y/Z)	D:\TRACE\v60_Jaco2_6-2-23\JustBodyDRS_Motion1_9-v60.trc
DataRate	CameraRate	NumFrames	NumMarkers	Units	OrigDataRate	OrigDataStartFrame	OrigNumFrames
100.00	100.00	      17	9	mm	100.00	1	      6756
Frame#	Time	front left toe			Front right toe			aft left toe			aft right toe			Arm			FL body			FR body			AL Body			AR Body			
		X1	Y1	Z1	X2	Y2	Z2	X3	Y3	Z3	X4	Y4	Z4	X5	Y5	Z5	X6	Y6	Z6	X7	Y7	Z7	X8	Y8	Z8	X9	Y9	Z9	

1	0.000	-254.68869	20.00319	-256.70938	155.90178	18.44328	-243.56305	-269.00333	16.79931	383.29092	134.41141	18.85699	362.06638	-154.34659	1211.64282	-394.75278	-128.63962	579.41693	-384.35126	31.25688	579.69977	-382.16428	-144.00105	584.81787	561.63959	13.86069	578.27161	565.63464	
2	0.010	-254.70172	20.02262	-256.71667	155.94077	18.45996	-243.53531	-269.00687	16.78152	383.24600	134.36711	18.85705	362.04324	-154.67770	1211.53955	-394.95248	-128.57036	579.37811	-384.33817	31.57062	579.78009	-382.21051	-144.11407	584.82788	561.59741	13.89924	578.32855	565.58539	
3	0.020	-254.73119	20.00438	-256.71930	155.91919	18.46946	-243.52663	-269.04916	16.77987	383.25049	134.43515	18.85341	362.07730	-154.71284	1211.57031	-395.01273	-128.61565	579.39215	-384.40674	31.54651	579.76782	-382.21365	-144.09721	584.86603	561.59906	13.83317	578.38873	565.56213	
4	0.030	-254.71506	20.03561	-256.70175	155.86792	18.46575	-243.55807	-268.98395	16.76142	383.26941	134.41304	18.86197	362.02557	-154.78343	1211.52686	-394.99997	-128.60371	579.36664	-384.39319	31.15935	579.70636	-382.25223	-144.20314	584.87329	561.52618	13.72095	578.43121	565.51471	
5	0.040	-254.69563	20.00066	-256.68011	155.91042	18.49823	-243.54143	-268.96176	16.74137	383.22235	134.40152	18.87686	362.03787	-154.91223	1211.55676	-395.09021	-128.69148	579.42432	-384.43588	31.20888	579.71112	-382.22037	-144.09225	584.79749	561.66986	13.65217	578.47180	565.50745	
6	0.050	-254.73155	20.02634	-256.69971	155.87587	18.51125	-243.56140	-268.98959	16.81352	383.26169	134.40475	18.88850	362.05151	-154.70769	1211.61084	-394.94708	-128.73647	579.43866	-384.44626	31.14047	579.70941	-382.23657	-144.11975	584.80200	561.62408	13.65859	578.48578	565.46625	
7	0.060	-254.73436	19.98512	-256.68359	155.87646	18.47690	-243.55325	-269.00967	16.77271	383.25061	134.35767	18.90353	362.04727	-154.88503	1211.62097	-394.95532	-128.73531	579.39343	-384.46973	31.11805	579.70648	-382.25754	-144.20464	584.80176	561.59595	13.51428	578.51538	565.43182	
8	0.070	-254.72043	20.00069	-256.70618	155.91043	18.51665	-243.54872	-268.94815	16.72441	383.27194	134.39825	18.88586	362.04855	-154.94617	1211.59741	-395.02936	-128.79922	579.38745	-384.49872	31.07230	579.68823	-382.29959	-144.25090	584.79950	561.58112	13.41559	578.53387	565.41870	
9	0.080	-254.75441	19.96307	-256.73425	155.91466	18.49963	-243.57410	-269.00098	16.76336	383.26807	134.35226	18.87788	362.02893	-155.12465	1211.63123	-395.07364	-128.78389	579.37512	-384.49796	31.01013	579.66980	-382.32141	-144.29890	584.79022	561.55359	13.39231	578.57965	565.38879	
10	0.090	-254.75137	20.01091	-256.71631	155.88135	18.52009	-243.61113	-269.00339	16.76868	383.22882	134.31358	18.93210	362.06299	-155.22955	1211.59314	-395.12830	-128.88782	579.39410	-384.58810	30.95696	579.66913	-382.31424	-144.26268	584.79755	561.52338	13.37229	578.60822	565.37500	
11	0.100	-254.74469	19.95782	-256.69626	155.93051	18.55389	-243.56032	-269.06561	16.78604	383.22598	134.39156	18.94755	362.03452	-155.25461	1211.58142	-395.19897	-128.93558	579.42139	-384.56958	30.87719	579.67267	-382.32977	-144.32202	584.81348	561.48383	13.36854	578.63477	565.33844	
12	0.110	-254.74489	19.96884	-256.68213	155.80374	18.51920	-243.57663	-269.03809	16.74815	383.21414	134.38329	18.96986	362.02991	-155.32660	1211.53027	-395.17883	-129.03606	579.44098	-384.60956	30.80148	579.68762	-382.38333	-144.37393	584.79822	561.49268	13.20218	578.62427	565.37854	
13	0.120	-254.79652	19.94376	-256.71817	155.87338	18.53165	-243.55232	-269.01309	16.68352	383.19971	134.36562	18.98075	362.03589	-155.36624	1211.50818	-395.20709	-129.05640	579.42279	-384.59091	30.82898	579.66632	-382.34189	-144.36862	584.79706	561.47974	13.21513	578.66437	565.34241	
14	0.130	-254.79498	19.95278	-256.66653	155.86250	18.51140	-243.56741	-269.00208	16.70332	383.26859	134.37186	18.99738	362.02481	-155.44287	1211.50244	-395.22360	-129.57857	579.70099	-384.94211	30.74231	579.66589	-382.39087	-144.28842	584.77344	561.75116	13.14810	578.68573	565.33362	
15	0.140	-254.78349	19.97665	-256.74875	155.86728	18.52626	-243.57310	-269.03964	16.67770	383.21545	134.36432	18.99387	362.01260	-155.64236	1211.62317	-395.33704	-129.60855	579.70178	-384.92673	30.68973	579.67706	-382.42215	-144.47467	584.80731	561.44312	13.12747	578.73914	565.35303	
16	0.150	-254.80260	19.95154	-256.66122	155.86176	18.56237	-243.56693	-268.98029	16.69209	383.22601	134.35138	18.99668	362.04004	-155.80508	1211.63477	-395.34174	-129.64410	579.68567	-384.95035	30.63157	579.66840	-382.45532	-144.43643	584.79370	561.44385	13.12701	578.74158	565.35181	
17	0.160	-254.78693	19.92101	-256.64813	155.83653	18.54309	-243.58438	-269.02112	16.67486	383.24301	134.33382	18.95418	362.01520	-155.92892	1211.59534	-395.32852	-129.14073	579.46893	-384.69061	30.62953	579.67126	-382.42041	-144.46233	584.79498	561.43994	13.10629	578.73639	565.35083	
